<mxfile host="app.diagrams.net" modified="2023-07-12T12:03:49.524Z" agent="Mozilla/5.0 (Macintosh; Intel Mac OS X 10_15_7) AppleWebKit/537.36 (KHTML, like Gecko) Chrome/114.0.0.0 Safari/537.36" etag="7aix2hYnNP7Fkul-arAN" version="21.6.2" type="github">
  <diagram name="Page-1" id="1MtP-zK2EOJyN8ydxOYJ">
    <mxGraphModel dx="977" dy="610" grid="1" gridSize="10" guides="1" tooltips="1" connect="1" arrows="1" fold="1" page="1" pageScale="1" pageWidth="827" pageHeight="1169" math="0" shadow="0">
      <root>
        <mxCell id="0" />
        <mxCell id="1" parent="0" />
        <mxCell id="eZvSAdlFv7bPs7KoMV4T-11" value="" style="whiteSpace=wrap;html=1;aspect=fixed;fillColor=#ffe6cc;strokeColor=#d79b00;" vertex="1" parent="1">
          <mxGeometry x="40" y="100" width="310" height="310" as="geometry" />
        </mxCell>
        <mxCell id="eZvSAdlFv7bPs7KoMV4T-12" value="" style="whiteSpace=wrap;html=1;aspect=fixed;fillColor=#ffe6cc;strokeColor=#d79b00;" vertex="1" parent="1">
          <mxGeometry x="490" y="100" width="310" height="310" as="geometry" />
        </mxCell>
        <mxCell id="eZvSAdlFv7bPs7KoMV4T-13" value="5ire Node" style="shape=cube;whiteSpace=wrap;html=1;boundedLbl=1;backgroundOutline=1;darkOpacity=0.05;darkOpacity2=0.1;fillColor=#f8cecc;strokeColor=#b85450;" vertex="1" parent="1">
          <mxGeometry x="360" y="129" width="120" height="80" as="geometry" />
        </mxCell>
        <mxCell id="eZvSAdlFv7bPs7KoMV4T-14" value="" style="whiteSpace=wrap;html=1;aspect=fixed;fillColor=#ffe6cc;strokeColor=#d79b00;" vertex="1" parent="1">
          <mxGeometry x="50" y="490" width="310" height="310" as="geometry" />
        </mxCell>
        <mxCell id="eZvSAdlFv7bPs7KoMV4T-15" value="" style="whiteSpace=wrap;html=1;aspect=fixed;fillColor=#ffe6cc;strokeColor=#d79b00;" vertex="1" parent="1">
          <mxGeometry x="490" y="490" width="310" height="310" as="geometry" />
        </mxCell>
        <mxCell id="eZvSAdlFv7bPs7KoMV4T-16" value="Socket Service" style="text;html=1;strokeColor=none;fillColor=none;align=center;verticalAlign=middle;whiteSpace=wrap;rounded=0;fontStyle=1" vertex="1" parent="1">
          <mxGeometry x="260" y="100" width="90" height="30" as="geometry" />
        </mxCell>
        <mxCell id="eZvSAdlFv7bPs7KoMV4T-17" value="Write Service" style="text;html=1;strokeColor=none;fillColor=none;align=center;verticalAlign=middle;whiteSpace=wrap;rounded=0;fontStyle=1" vertex="1" parent="1">
          <mxGeometry x="710" y="100" width="90" height="30" as="geometry" />
        </mxCell>
        <mxCell id="eZvSAdlFv7bPs7KoMV4T-18" value="Frontend" style="text;html=1;strokeColor=none;fillColor=none;align=center;verticalAlign=middle;whiteSpace=wrap;rounded=0;fontStyle=1" vertex="1" parent="1">
          <mxGeometry x="268" y="490" width="90" height="30" as="geometry" />
        </mxCell>
        <mxCell id="eZvSAdlFv7bPs7KoMV4T-19" value="API Service" style="text;html=1;strokeColor=none;fillColor=none;align=center;verticalAlign=middle;whiteSpace=wrap;rounded=0;fontStyle=1" vertex="1" parent="1">
          <mxGeometry x="710" y="490" width="90" height="30" as="geometry" />
        </mxCell>
        <mxCell id="eZvSAdlFv7bPs7KoMV4T-20" value="" style="shape=cylinder3;whiteSpace=wrap;html=1;boundedLbl=1;backgroundOutline=1;size=15;rotation=90;fillColor=#dae8fc;strokeColor=#6c8ebf;" vertex="1" parent="1">
          <mxGeometry x="384" y="252" width="60" height="110" as="geometry" />
        </mxCell>
        <mxCell id="eZvSAdlFv7bPs7KoMV4T-21" value="Socket Helper" style="rounded=0;whiteSpace=wrap;html=1;fillColor=#dae8fc;strokeColor=#6c8ebf;" vertex="1" parent="1">
          <mxGeometry x="140" y="200" width="120" height="60" as="geometry" />
        </mxCell>
        <mxCell id="eZvSAdlFv7bPs7KoMV4T-22" value="" style="endArrow=classic;html=1;rounded=0;entryX=0.5;entryY=0;entryDx=0;entryDy=0;exitX=-0.008;exitY=0.475;exitDx=0;exitDy=0;exitPerimeter=0;" edge="1" parent="1" source="eZvSAdlFv7bPs7KoMV4T-13" target="eZvSAdlFv7bPs7KoMV4T-21">
          <mxGeometry width="50" height="50" relative="1" as="geometry">
            <mxPoint x="380" y="330" as="sourcePoint" />
            <mxPoint x="430" y="280" as="targetPoint" />
            <Array as="points">
              <mxPoint x="200" y="169" />
            </Array>
          </mxGeometry>
        </mxCell>
        <mxCell id="eZvSAdlFv7bPs7KoMV4T-23" value="wss subscriptoin" style="edgeLabel;html=1;align=center;verticalAlign=middle;resizable=0;points=[];labelBackgroundColor=#FFCCE6;" vertex="1" connectable="0" parent="eZvSAdlFv7bPs7KoMV4T-22">
          <mxGeometry x="0.3404" y="-4" relative="1" as="geometry">
            <mxPoint x="23" as="offset" />
          </mxGeometry>
        </mxCell>
        <mxCell id="eZvSAdlFv7bPs7KoMV4T-31" value="" style="edgeStyle=orthogonalEdgeStyle;rounded=0;orthogonalLoop=1;jettySize=auto;html=1;entryX=0;entryY=0.5;entryDx=0;entryDy=0;" edge="1" parent="1" target="eZvSAdlFv7bPs7KoMV4T-28">
          <mxGeometry relative="1" as="geometry">
            <mxPoint x="470" y="307" as="sourcePoint" />
          </mxGeometry>
        </mxCell>
        <mxCell id="eZvSAdlFv7bPs7KoMV4T-32" value="Consume Txns" style="edgeLabel;html=1;align=center;verticalAlign=middle;resizable=0;points=[];labelBackgroundColor=#FFCCE6;" vertex="1" connectable="0" parent="eZvSAdlFv7bPs7KoMV4T-31">
          <mxGeometry x="0.1493" y="-1" relative="1" as="geometry">
            <mxPoint x="-11" as="offset" />
          </mxGeometry>
        </mxCell>
        <mxCell id="eZvSAdlFv7bPs7KoMV4T-25" value="RabbitMq" style="text;html=1;strokeColor=none;fillColor=none;align=center;verticalAlign=middle;whiteSpace=wrap;rounded=0;" vertex="1" parent="1">
          <mxGeometry x="371" y="291" width="60" height="30" as="geometry" />
        </mxCell>
        <mxCell id="eZvSAdlFv7bPs7KoMV4T-26" value="" style="endArrow=classic;html=1;rounded=0;exitX=0.9;exitY=1.05;exitDx=0;exitDy=0;exitPerimeter=0;entryX=0.5;entryY=1;entryDx=0;entryDy=0;entryPerimeter=0;" edge="1" parent="1" source="eZvSAdlFv7bPs7KoMV4T-21" target="eZvSAdlFv7bPs7KoMV4T-20">
          <mxGeometry width="50" height="50" relative="1" as="geometry">
            <mxPoint x="380" y="330" as="sourcePoint" />
            <mxPoint x="430" y="280" as="targetPoint" />
            <Array as="points">
              <mxPoint x="248" y="307" />
            </Array>
          </mxGeometry>
        </mxCell>
        <mxCell id="eZvSAdlFv7bPs7KoMV4T-27" value="Put Transactions Into Queue" style="edgeLabel;html=1;align=center;verticalAlign=middle;resizable=0;points=[];labelBackgroundColor=#FFCCE6;" vertex="1" connectable="0" parent="eZvSAdlFv7bPs7KoMV4T-26">
          <mxGeometry x="-0.4803" y="1" relative="1" as="geometry">
            <mxPoint y="-12" as="offset" />
          </mxGeometry>
        </mxCell>
        <mxCell id="eZvSAdlFv7bPs7KoMV4T-28" value="Helper" style="rounded=0;whiteSpace=wrap;html=1;fillColor=#dae8fc;strokeColor=#6c8ebf;" vertex="1" parent="1">
          <mxGeometry x="580" y="277" width="120" height="60" as="geometry" />
        </mxCell>
        <mxCell id="eZvSAdlFv7bPs7KoMV4T-29" value="Controllers" style="rounded=0;whiteSpace=wrap;html=1;fillColor=#dae8fc;strokeColor=#6c8ebf;" vertex="1" parent="1">
          <mxGeometry x="580" y="182" width="120" height="60" as="geometry" />
        </mxCell>
        <mxCell id="eZvSAdlFv7bPs7KoMV4T-30" value="DB&lt;br&gt;(Postgre)" style="shape=cylinder3;whiteSpace=wrap;html=1;boundedLbl=1;backgroundOutline=1;size=15;fillColor=#e1d5e7;strokeColor=#9673a6;" vertex="1" parent="1">
          <mxGeometry x="390" y="400" width="60" height="80" as="geometry" />
        </mxCell>
        <mxCell id="eZvSAdlFv7bPs7KoMV4T-33" value="" style="endArrow=classic;html=1;rounded=0;exitX=0.5;exitY=1;exitDx=0;exitDy=0;entryX=1;entryY=0.5;entryDx=0;entryDy=0;entryPerimeter=0;" edge="1" parent="1" source="eZvSAdlFv7bPs7KoMV4T-28" target="eZvSAdlFv7bPs7KoMV4T-30">
          <mxGeometry width="50" height="50" relative="1" as="geometry">
            <mxPoint x="380" y="410" as="sourcePoint" />
            <mxPoint x="430" y="360" as="targetPoint" />
            <Array as="points">
              <mxPoint x="640" y="440" />
            </Array>
          </mxGeometry>
        </mxCell>
        <mxCell id="eZvSAdlFv7bPs7KoMV4T-34" value="Save Block and Txn Info to DB" style="edgeLabel;html=1;align=center;verticalAlign=middle;resizable=0;points=[];labelBackgroundColor=#FFCCE6;" vertex="1" connectable="0" parent="eZvSAdlFv7bPs7KoMV4T-33">
          <mxGeometry x="-0.5904" y="-1" relative="1" as="geometry">
            <mxPoint as="offset" />
          </mxGeometry>
        </mxCell>
        <mxCell id="eZvSAdlFv7bPs7KoMV4T-35" value="" style="endArrow=classic;html=1;rounded=0;exitX=0.5;exitY=1;exitDx=0;exitDy=0;" edge="1" parent="1" source="eZvSAdlFv7bPs7KoMV4T-29" target="eZvSAdlFv7bPs7KoMV4T-28">
          <mxGeometry width="50" height="50" relative="1" as="geometry">
            <mxPoint x="380" y="410" as="sourcePoint" />
            <mxPoint x="430" y="360" as="targetPoint" />
          </mxGeometry>
        </mxCell>
        <mxCell id="eZvSAdlFv7bPs7KoMV4T-36" value="" style="endArrow=classic;html=1;rounded=0;exitX=1;exitY=0.5;exitDx=0;exitDy=0;entryX=-0.017;entryY=0.867;entryDx=0;entryDy=0;entryPerimeter=0;" edge="1" parent="1">
          <mxGeometry width="50" height="50" relative="1" as="geometry">
            <mxPoint x="260" y="234" as="sourcePoint" />
            <mxPoint x="577.96" y="236.01999999999998" as="targetPoint" />
          </mxGeometry>
        </mxCell>
        <mxCell id="eZvSAdlFv7bPs7KoMV4T-37" value="Post Blocks and Peer Info&amp;nbsp;&lt;br&gt;Via Post APIs" style="edgeLabel;html=1;align=center;verticalAlign=middle;resizable=0;points=[];labelBackgroundColor=#FFCCE6;" vertex="1" connectable="0" parent="eZvSAdlFv7bPs7KoMV4T-36">
          <mxGeometry x="-0.1195" y="2" relative="1" as="geometry">
            <mxPoint as="offset" />
          </mxGeometry>
        </mxCell>
        <mxCell id="eZvSAdlFv7bPs7KoMV4T-38" value="Helper" style="rounded=0;whiteSpace=wrap;html=1;fillColor=#dae8fc;strokeColor=#6c8ebf;" vertex="1" parent="1">
          <mxGeometry x="590" y="570" width="120" height="60" as="geometry" />
        </mxCell>
        <mxCell id="eZvSAdlFv7bPs7KoMV4T-39" value="Controllers&lt;br&gt;(All api routes)" style="rounded=0;whiteSpace=wrap;html=1;fillColor=#dae8fc;strokeColor=#6c8ebf;" vertex="1" parent="1">
          <mxGeometry x="590" y="690" width="120" height="60" as="geometry" />
        </mxCell>
        <mxCell id="eZvSAdlFv7bPs7KoMV4T-40" value="" style="endArrow=classic;html=1;rounded=0;entryX=0.418;entryY=-0.063;entryDx=0;entryDy=0;entryPerimeter=0;" edge="1" parent="1" target="eZvSAdlFv7bPs7KoMV4T-38">
          <mxGeometry width="50" height="50" relative="1" as="geometry">
            <mxPoint x="450" y="460" as="sourcePoint" />
            <mxPoint x="640" y="560" as="targetPoint" />
            <Array as="points">
              <mxPoint x="640" y="460" />
            </Array>
          </mxGeometry>
        </mxCell>
        <mxCell id="eZvSAdlFv7bPs7KoMV4T-41" value="Get Blocks/ Txn&lt;br&gt;From DB" style="edgeLabel;html=1;align=center;verticalAlign=middle;resizable=0;points=[];labelBackgroundColor=#FFCCE6;" vertex="1" connectable="0" parent="eZvSAdlFv7bPs7KoMV4T-40">
          <mxGeometry x="0.538" y="1" relative="1" as="geometry">
            <mxPoint y="18" as="offset" />
          </mxGeometry>
        </mxCell>
        <mxCell id="eZvSAdlFv7bPs7KoMV4T-42" value="" style="endArrow=classic;html=1;rounded=0;entryX=0.41;entryY=0;entryDx=0;entryDy=0;entryPerimeter=0;" edge="1" parent="1" target="eZvSAdlFv7bPs7KoMV4T-39">
          <mxGeometry width="50" height="50" relative="1" as="geometry">
            <mxPoint x="640" y="630" as="sourcePoint" />
            <mxPoint x="370" y="680" as="targetPoint" />
          </mxGeometry>
        </mxCell>
        <mxCell id="eZvSAdlFv7bPs7KoMV4T-44" value="" style="shape=cylinder3;whiteSpace=wrap;html=1;boundedLbl=1;backgroundOutline=1;size=15;rotation=90;fillColor=#f0a30a;fontColor=#000000;strokeColor=#BD7000;" vertex="1" parent="1">
          <mxGeometry x="625" y="620" width="30" height="70" as="geometry" />
        </mxCell>
        <mxCell id="eZvSAdlFv7bPs7KoMV4T-46" value="Redis" style="text;html=1;strokeColor=none;fillColor=none;align=center;verticalAlign=middle;whiteSpace=wrap;rounded=0;" vertex="1" parent="1">
          <mxGeometry x="600" y="640" width="60" height="30" as="geometry" />
        </mxCell>
        <mxCell id="eZvSAdlFv7bPs7KoMV4T-47" value="Dashborad" style="rounded=0;whiteSpace=wrap;html=1;fillColor=#dae8fc;strokeColor=#6c8ebf;" vertex="1" parent="1">
          <mxGeometry x="90" y="540" width="120" height="60" as="geometry" />
        </mxCell>
        <mxCell id="eZvSAdlFv7bPs7KoMV4T-48" value="Blocks" style="rounded=0;whiteSpace=wrap;html=1;fillColor=#dae8fc;strokeColor=#6c8ebf;" vertex="1" parent="1">
          <mxGeometry x="220" y="540" width="120" height="60" as="geometry" />
        </mxCell>
        <mxCell id="eZvSAdlFv7bPs7KoMV4T-49" value="Transactoins" style="rounded=0;whiteSpace=wrap;html=1;fillColor=#dae8fc;strokeColor=#6c8ebf;" vertex="1" parent="1">
          <mxGeometry x="90" y="630" width="120" height="60" as="geometry" />
        </mxCell>
        <mxCell id="eZvSAdlFv7bPs7KoMV4T-50" value="" style="rounded=0;whiteSpace=wrap;html=1;fillColor=#dae8fc;strokeColor=#6c8ebf;" vertex="1" parent="1">
          <mxGeometry x="220" y="630" width="120" height="60" as="geometry" />
        </mxCell>
        <mxCell id="eZvSAdlFv7bPs7KoMV4T-51" value="Nodes" style="text;html=1;strokeColor=none;fillColor=none;align=center;verticalAlign=middle;whiteSpace=wrap;rounded=0;" vertex="1" parent="1">
          <mxGeometry x="250" y="645" width="60" height="30" as="geometry" />
        </mxCell>
        <mxCell id="eZvSAdlFv7bPs7KoMV4T-52" value="Validators" style="rounded=0;whiteSpace=wrap;html=1;fillColor=#dae8fc;strokeColor=#6c8ebf;" vertex="1" parent="1">
          <mxGeometry x="90" y="720" width="120" height="60" as="geometry" />
        </mxCell>
        <mxCell id="eZvSAdlFv7bPs7KoMV4T-53" value="" style="endArrow=classic;html=1;rounded=0;exitX=0.176;exitY=0.968;exitDx=0;exitDy=0;exitPerimeter=0;entryX=0.355;entryY=-0.011;entryDx=0;entryDy=0;entryPerimeter=0;" edge="1" parent="1" source="eZvSAdlFv7bPs7KoMV4T-21" target="eZvSAdlFv7bPs7KoMV4T-14">
          <mxGeometry width="50" height="50" relative="1" as="geometry">
            <mxPoint x="320" y="460" as="sourcePoint" />
            <mxPoint x="370" y="410" as="targetPoint" />
          </mxGeometry>
        </mxCell>
        <mxCell id="eZvSAdlFv7bPs7KoMV4T-54" value="wss subscriptions&lt;br&gt;for latest blocks and txn" style="edgeLabel;html=1;align=center;verticalAlign=middle;resizable=0;points=[];labelBackgroundColor=#FFCCE6;" vertex="1" connectable="0" parent="eZvSAdlFv7bPs7KoMV4T-53">
          <mxGeometry x="0.2589" y="-3" relative="1" as="geometry">
            <mxPoint y="38" as="offset" />
          </mxGeometry>
        </mxCell>
        <mxCell id="eZvSAdlFv7bPs7KoMV4T-55" value="" style="endArrow=classic;html=1;rounded=0;exitX=0.991;exitY=0.684;exitDx=0;exitDy=0;exitPerimeter=0;entryX=0;entryY=0.25;entryDx=0;entryDy=0;" edge="1" parent="1" source="eZvSAdlFv7bPs7KoMV4T-14" target="eZvSAdlFv7bPs7KoMV4T-39">
          <mxGeometry width="50" height="50" relative="1" as="geometry">
            <mxPoint x="320" y="590" as="sourcePoint" />
            <mxPoint x="410" y="690" as="targetPoint" />
          </mxGeometry>
        </mxCell>
        <mxCell id="eZvSAdlFv7bPs7KoMV4T-56" value="Request" style="edgeLabel;html=1;align=center;verticalAlign=middle;resizable=0;points=[];labelBackgroundColor=#FFCCE6;" vertex="1" connectable="0" parent="eZvSAdlFv7bPs7KoMV4T-55">
          <mxGeometry x="-0.2302" relative="1" as="geometry">
            <mxPoint as="offset" />
          </mxGeometry>
        </mxCell>
        <mxCell id="eZvSAdlFv7bPs7KoMV4T-57" value="" style="endArrow=classic;html=1;rounded=0;exitX=0;exitY=0.5;exitDx=0;exitDy=0;" edge="1" parent="1" source="eZvSAdlFv7bPs7KoMV4T-39">
          <mxGeometry width="50" height="50" relative="1" as="geometry">
            <mxPoint x="320" y="690" as="sourcePoint" />
            <mxPoint x="360" y="720" as="targetPoint" />
          </mxGeometry>
        </mxCell>
        <mxCell id="eZvSAdlFv7bPs7KoMV4T-58" value="Response" style="edgeLabel;html=1;align=center;verticalAlign=middle;resizable=0;points=[];labelBackgroundColor=#FFCCE6;" vertex="1" connectable="0" parent="eZvSAdlFv7bPs7KoMV4T-57">
          <mxGeometry x="0.0215" y="2" relative="1" as="geometry">
            <mxPoint x="-24" as="offset" />
          </mxGeometry>
        </mxCell>
        <mxCell id="eZvSAdlFv7bPs7KoMV4T-59" value="" style="endArrow=classic;html=1;rounded=0;entryX=0;entryY=0.5;entryDx=0;entryDy=0;" edge="1" parent="1" target="eZvSAdlFv7bPs7KoMV4T-38">
          <mxGeometry width="50" height="50" relative="1" as="geometry">
            <mxPoint x="476" y="210" as="sourcePoint" />
            <mxPoint x="476" y="590" as="targetPoint" />
            <Array as="points">
              <mxPoint x="476" y="600" />
            </Array>
          </mxGeometry>
        </mxCell>
        <mxCell id="eZvSAdlFv7bPs7KoMV4T-60" value="Get peer details/&lt;br&gt;Missing blocks etc" style="edgeLabel;html=1;align=center;verticalAlign=middle;resizable=0;points=[];labelBackgroundColor=#FFCCE6;" vertex="1" connectable="0" parent="eZvSAdlFv7bPs7KoMV4T-59">
          <mxGeometry x="0.2604" y="1" relative="1" as="geometry">
            <mxPoint as="offset" />
          </mxGeometry>
        </mxCell>
      </root>
    </mxGraphModel>
  </diagram>
</mxfile>
